# xmcd
#
# Track frame offsets: 
#        150
#        28107
#        50508
#        77184
#        101280
#        133770
#        155112
#        182517
#        206238
#        234570
#
# Disc length: 3657 seconds
#
# Revision: 0
# Processed by: cddbd v1.5.2PL0 Copyright (c) Steve Scherf et al.
# Submitted via: ExactAudioCopy v1.0b3
#
DISCID=870e470a
DTITLE=Dżem - Symfonicznie - CD1
DYEAR=2012
DGENRE=Blues
TTITLE0=Zloty Paw
TTITLE1=Do Przodu
TTITLE2=Szara Mgla
TTITLE3=Kim Jestem - Jestem Sobie
TTITLE4=Cma Barowa
TTITLE5=Gorszy Dzien
TTITLE6=W Drodze Do Nieba
TTITLE7=Wokol Sami Lunatycy
TTITLE8=Strach
TTITLE9=List Do M.
EXTD=
EXTT0=
EXTT1=
EXTT2=
EXTT3=
EXTT4=
EXTT5=
EXTT6=
EXTT7=
EXTT8=
EXTT9=
PLAYORDER=
